<?xml version="1.0" encoding="UTF-8"?>
<svg width="3162px" height="680px" viewBox="0 0 3162 680" version="1.1" xmlns="http://www.w3.org/2000/svg" xmlns:xlink="http://www.w3.org/1999/xlink">
    <!-- Generator: Sketch 40.3 (33839) - http://www.bohemiancoding.com/sketch -->
    <title>Desktop HD Copy 2</title>
    <desc>Created with Sketch.</desc>
    <defs></defs>
    <g id="Page-1" stroke="none" stroke-width="1" fill="none" fill-rule="evenodd">
        <g id="Desktop-HD-Copy-2">
            <g id="Group-11" transform="translate(-2862.000000, 0.000000)">
                <g id="Group">
                    <path d="M2975.12575,226.367239 L2975.01462,226.367239 C2969.45148,161.129383 2914.73515,109.914768 2848.057,109.914768 C2781.37886,109.914768 2726.66253,161.129383 2721.09938,226.367239 L2721.02958,226.367239 C2717.08974,261.544642 2687.24744,288.891028 2651.01805,288.891028 C2614.78866,288.891028 2584.94636,261.544642 2581.00652,226.367239 L2580.93903,226.367239 C2573.59446,189.901687 2541.37897,162.44041 2502.74954,162.44041 C2464.36071,162.44041 2432.30615,189.560693 2424.70017,225.686965 C2418.19753,266.474237 2382.85963,297.645301 2340.24134,297.645301 C2297.8603,297.645301 2262.67882,266.820321 2255.89378,226.367239 L2255.80251,226.367239 C2255.76878,225.960613 2255.73407,225.554266 2255.69838,225.148201 C2255.29104,222.483864 2255.00665,219.77906 2254.85116,217.039766 C2240.03566,94.7502869 2135.87896,0 2009.59213,0 C1880.11233,0 1773.89585,99.6021056 1763.38176,226.367239 L1763.16184,226.367239 C1760.99568,292.885455 1706.39016,346.144566 1639.34531,346.144566 C1591.41903,346.144566 1549.84918,318.929424 1529.24695,279.110321 C1529.16793,279.117587 1529.08888,279.123812 1529.00978,279.128967 C1528.76011,278.454866 1528.50302,277.784359 1528.23864,277.117544 C1526.94515,274.502689 1525.74125,271.835619 1524.63095,269.120346 C1508.89215,238.139222 1476.72091,216.911445 1439.59165,216.911445 C1404.23228,216.911445 1373.3695,236.163689 1356.91384,264.757666 C1342.94151,299.433633 1308.97985,323.908122 1269.30187,323.908122 C1231.29475,323.908122 1198.53265,301.451494 1183.56033,269.082987 C1183.4777,269.011383 1183.39486,268.938541 1183.3118,268.864483 C1183.20156,268.509662 1183.0906,268.155161 1182.97894,267.800975 C1180.87184,263.060444 1179.14376,258.114147 1177.8332,253.000564 C1139.05467,151.152217 1040.49552,78.7884622 925.034908,78.7884622 C821.918965,78.7884622 732.28359,136.50563 686.672514,221.396234 C664.699715,272.109515 614.198026,307.587444 555.410023,307.587444 C495.58857,307.587444 444.347327,270.851199 423.015292,218.707708 C382.461864,154.349119 310.759594,111.588986 229.070159,111.588986 C102.558203,111.588986 0,214.147189 0,340.659144 C0,467.171099 102.558203,569.729303 229.070159,569.729303 C254.295059,569.729303 278.567669,565.652063 301.264914,558.120661 L301.264913,620.30955 L5904,620.30955 L5904,226.367239 L3114.91036,226.367239 C3110.5224,261.06154 3080.90341,287.891028 3045.01805,287.891028 C3009.1327,287.891028 2979.5137,261.06154 2975.12575,226.367239 Z" id="Combined-Shape" fill="#FFE9C5" transform="translate(2952.000000, 310.154775) scale(-1, 1) translate(-2952.000000, -310.154775) "></path>
                    <path d="M3088.92927,399.38012 L3088.86565,399.38012 C3081.94245,365.006666 3051.57522,339.120894 3015.16204,339.120894 C2978.97565,339.120894 2948.76013,364.685235 2941.59051,398.738875 C2935.46094,437.186103 2902.15044,466.568825 2861.97725,466.568825 C2822.02769,466.568825 2788.86464,437.512332 2782.46887,399.38012 L2782.38283,399.38012 C2782.35104,398.996823 2782.31832,398.613789 2782.28467,398.231021 C2781.90071,395.719542 2781.63263,393.169918 2781.48607,390.587782 C2767.52056,275.314283 2669.33952,186 2550.29801,186 C2428.24671,186 2328.12407,279.887743 2318.21319,399.38012 L2318.00589,399.38012 C2315.96401,462.082059 2264.49131,512.285594 2201.29295,512.285594 C2156.11629,512.285594 2116.93138,486.631836 2097.51114,449.097231 C2097.43666,449.104081 2097.36214,449.109948 2097.28758,449.114807 C2097.05223,448.479381 2096.8099,447.847342 2096.56068,447.218783 C2095.3414,444.753948 2094.20657,442.239893 2093.15997,439.6804 C2078.32413,410.476722 2047.99862,390.466823 2012.99954,390.466823 C1979.6688,390.466823 1950.57668,408.614529 1935.06511,435.568016 C1921.8944,468.254556 1889.88119,491.324897 1852.47961,491.324897 C1816.65303,491.324897 1785.77055,470.156649 1771.65722,439.645184 C1771.57933,439.577688 1771.50124,439.509025 1771.42295,439.439216 C1771.31903,439.104752 1771.21445,438.77059 1771.10919,438.436724 C1769.12297,433.968166 1767.49404,429.305647 1766.25867,424.485441 C1729.70494,328.480327 1636.80031,260.268218 1527.9639,260.268218 C1430.76391,260.268218 1346.27109,314.674041 1303.27681,394.694306 C1282.56462,442.498077 1234.96032,475.940567 1179.54509,475.940567 C1123.15571,475.940567 1074.85428,441.311951 1054.7461,392.160031 C1016.5193,331.493817 948.930725,291.186913 871.927968,291.186913 C762.447903,291.186913 671.997897,372.664279 657.907272,478.289687 C657.306265,478.496317 656.712855,478.64386 656.128089,478.728453 C653.210586,520.070158 618.74819,552.702599 576.664079,552.702599 C536.927547,552.702599 503.986122,523.609287 497.978636,485.561494 L497.101591,486.813744 C478.224413,386.820309 390.408754,311.186913 284.927968,311.186913 C165.674244,311.186913 69,407.861158 69,527.114881 C69,640.085081 155.755032,732.792556 266.276294,742.248505 L266.276294,776.773438 L6221.27629,770.721212 L6221.27629,399.38012 L3460.33238,399.38012 C3455.0884,337.885084 3403.51125,289.608749 3340.65856,289.608749 C3277.80586,289.608749 3226.22871,337.885084 3220.98474,399.38012 L3220.91894,399.38012 C3217.20514,432.539329 3189.07495,458.3168 3154.92411,458.3168 C3120.77327,458.3168 3092.64307,432.539329 3088.92927,399.38012 Z" id="Combined-Shape" fill="#FFCA25" transform="translate(3145.138147, 481.386719) scale(-1, 1) translate(-3145.138147, -481.386719) "></path>
                    <path d="M5881.97165,551.043978 C5888.48739,506.335146 5926.98399,472 5973.5,472 C6021.96655,472 6061.72704,509.275046 6065.67755,556.721212 L8611.72121,556.721212 L8611.72121,1301.72121 L2851.72121,1301.72121 L2851.72121,897.78673 C2828.38687,905.529527 2803.43295,909.721212 2777.5,909.721212 C2647.43694,909.721212 2542,804.28427 2542,674.221212 C2542,544.158153 2647.43694,438.721212 2777.5,438.721212 C2861.4824,438.721212 2935.19731,482.681593 2976.88904,548.846683 C2998.81985,602.453806 3051.4994,640.221212 3113,640.221212 C3173.43814,640.221212 3225.35738,603.747442 3247.94694,551.61067 C3294.83829,464.337249 3386.98966,405 3493,405 C3611.70151,405 3713.02715,479.394956 3752.89417,584.102122 C3754.24152,589.359233 3756.0181,594.44437 3758.18435,599.317967 C3758.29914,599.682092 3758.41321,600.046543 3758.52654,600.411317 C3758.61193,600.48746 3758.6971,600.562347 3758.78205,600.635961 C3774.17464,633.91303 3807.85634,657 3846.9303,657 C3887.72202,657 3922.63696,631.838529 3937.00147,596.189232 C3953.91904,566.792641 3985.64811,547 4022,547 C4060.17144,547 4093.24571,568.823625 4109.42629,600.674378 C4110.56775,603.465857 4111.80544,606.20779 4113.13524,608.896042 C4113.40705,609.581575 4113.67135,610.270903 4113.92803,610.963925 C4114.00935,610.958625 4114.09062,610.952226 4114.17185,610.944736 C4135.35238,651.881553 4178.08906,679.860606 4227.36061,679.860606 C4296.28736,679.860606 4352.42562,625.106547 4354.65258,556.721234 L4354.87867,556.721212 C4365.68788,426.397868 4474.88579,324 4608,324 C4737.83161,324 4844.91192,421.409862 4860.14328,547.131928 C4860.30313,549.948107 4860.59551,552.728833 4861.01428,555.467961 C4861.05097,555.885419 4861.08666,556.303172 4861.12133,556.721212 L4861.21517,556.721212 C4868.19066,598.309784 4904.35966,630 4947.9303,630 C4991.74486,630 5028.07467,597.953985 5034.75984,556.021843 C5042.57931,518.881531 5075.53362,491 5115,491 C5154.71372,491 5187.83349,519.232096 5195.38421,556.721212 L5195.4536,556.721212 C5199.50403,592.88602 5230.18398,621 5267.4303,621 C5304.67663,621 5335.35658,592.88602 5339.40701,556.721212 L5339.47877,556.721212 C5345.19806,489.652173 5401.45025,437 5470,437 C5536.26832,437 5591.044,486.205808 5599.78368,550.074054 C5599.93288,551.493994 5600.10301,552.907705 5600.29377,554.314865 C5600.37681,555.114864 5600.45266,555.917001 5600.52123,556.721212 L5600.641,556.721212 C5611.06628,624.83057 5669.90588,677 5740.9303,677 C5811.95473,677 5870.79433,624.83057 5881.2196,556.721212 L5881.32245,556.721212 C5881.37779,556.056547 5881.44016,555.393878 5881.50948,554.733279 C5881.67924,553.508438 5881.83336,552.278602 5881.97165,551.043976 Z" id="Combined-Shape" fill="#032C2C"></path>
                </g>
            </g>
        </g>
    </g>
</svg>