<svg width="3162" height="802" viewBox="0 0 3162 802" xmlns="http://www.w3.org/2000/svg"><title>Desktop HD Copy 2</title><g fill="none" fill-rule="evenodd"><path d="M2879.582 579.875c-7.52 63.202-61.3 112.21-126.525 112.21-66.678 0-121.394-51.214-126.958-116.452h-.07c-3.94-35.178-33.782-62.524-70.01-62.524-36.23 0-66.073 27.346-70.012 62.524h-.068c-7.345 36.465-39.56 63.927-78.19 63.927-38.388 0-70.443-27.12-78.049-63.247-6.502-40.787-41.84-71.958-84.459-71.958-42.38 0-77.562 30.825-84.347 71.278h-.091c-.034.406-.069.813-.105 1.219a85.826 85.826 0 0 0-.847 8.108C2145.036 707.25 2040.88 802 1914.592 802c-129.48 0-235.696-99.602-246.21-226.367h-.22c-2.166-66.518-56.772-119.778-123.817-119.778-47.926 0-89.496 27.216-110.098 67.035a8.938 8.938 0 0 0-.237-.019c-.25.674-.507 1.345-.771 2.011a123.224 123.224 0 0 0-3.608 7.998c-15.739 30.98-47.91 52.209-85.04 52.209-35.359 0-66.221-19.253-82.677-47.847-13.972-34.676-47.934-59.15-87.612-59.15-38.007 0-70.77 22.457-85.742 54.825-.082.072-.165.144-.248.219-.11.354-.221.709-.333 1.063a93.711 93.711 0 0 0-5.146 14.8c-38.778 101.849-137.337 174.213-252.798 174.213-103.116 0-192.751-57.718-238.362-142.608-21.973-50.714-72.475-86.191-131.263-86.191-59.821 0-111.063 36.736-132.395 88.88C287.462 647.65 215.76 690.41 134.07 690.41 7.558 690.411-95 587.853-95 461.341c0-96.832 60.082-179.631 145-213.151V77.727l219.094 32.101L770.78 181.69H5809v393.943H3209.871C3206.415 487.438 3133.824 417 3044.783 417c-90.465 0-163.948 72.708-165.201 162.875z" fill="#FFE9C5"/><path d="M3101.663 335.539C3111.11 383.68 3153.537 420 3204.446 420c52.63 0 96.194-38.815 103.627-89.38H5690V-40.721l-5424.193-.077c-40.27-20.615-85.901-32.245-134.249-32.245-162.936 0-295.021 132.086-295.021 295.022C-163.463 384.914-31.378 517 131.558 517c134.458 0 247.907-89.949 283.457-212.956l.154.005c19.724-76.232 88.97-132.534 171.368-132.534 82.594 0 151.976 56.573 171.509 133.083 36.31 96.487 129.46 165.134 238.642 165.134 108.836 0 201.74-68.212 238.294-164.217a88.334 88.334 0 0 1 4.85-13.952l.315-1.002c.078-.07.156-.139.234-.206 14.113-30.512 44.996-51.68 80.822-51.68 37.402 0 69.415 23.07 82.586 55.757 15.511 26.953 44.604 45.101 77.934 45.101 35 0 65.325-20.01 80.16-49.213a116.151 116.151 0 0 1 3.401-7.539 89.2 89.2 0 0 0 .727-1.896c.075.005.15.01.224.018 19.42-37.535 58.605-63.189 103.782-63.189 63.198 0 114.67 50.204 116.713 112.906h.207C1796.847 450.112 1896.97 544 2019.022 544c119.041 0 217.222-89.314 231.188-204.588a80.9 80.9 0 0 1 .798-7.643c.034-.383.067-.766.099-1.15h.086c6.395-38.131 39.558-67.188 79.508-67.188 40.173 0 73.484 29.383 79.613 67.83 7.17 34.054 37.385 59.618 73.572 59.618 36.413 0 66.78-25.886 73.703-60.26h.064c3.714-33.158 31.844-58.936 65.995-58.936 34.15 0 62.28 25.778 65.995 58.937h.065c5.244 61.495 56.822 109.771 119.674 109.771 62.853 0 114.43-48.276 119.674-109.771h.608c4.33-43.583 41.103-77.62 85.825-77.62 46.392 0 84.23 36.626 86.174 82.539z" fill="#FFCA25"/><path d="M158.348 123.279h.13C164.199 190.348 220.45 243 289 243c68.55 0 124.802-52.652 130.521-119.721h.072C423.643 87.114 454.323 59 491.57 59c37.246 0 67.926 28.114 71.976 64.279h.07C571.166 160.768 604.286 189 644 189c39.466 0 72.42-27.882 80.24-65.022C730.925 82.046 767.255 50 811.07 50c43.57 0 79.74 31.69 86.715 73.279h.094c.034.418.07.836.107 1.253.418 2.74.71 5.52.87 8.336C914.089 258.59 1021.169 356 1151 356c133.114 0 242.312-102.398 253.121-232.721h.226C1406.574 54.893 1462.713.139 1531.64.139c49.272 0 92.009 27.98 113.19 68.916.08-.007.162-.014.243-.019.257.693.521 1.382.793 2.068 1.33 2.688 2.567 5.43 3.709 8.222C1665.754 111.176 1698.829 133 1737 133c36.352 0 68.081-19.793 84.999-49.19 14.364-35.649 49.279-60.81 90.07-60.81 39.075 0 72.756 23.087 88.149 56.364l.255.225.343 1.093a96.342 96.342 0 0 1 5.29 15.216C2045.973 200.605 2147.298 275 2266 275c106.01 0 198.162-59.337 245.053-146.61 22.59-52.137 74.509-88.611 134.947-88.611 61.5 0 114.18 37.767 136.111 91.374 41.692 66.165 115.407 110.126 199.389 110.126 130.063 0 235.5-105.437 235.5-235.5s-105.437-235.5-235.5-235.5c-37.138 0-72.269 8.596-103.51 23.909h-421.854C2406.416-252.442 2339.543-281 2266-281c-73.543 0-140.416 28.557-190.136 75.188h-4937.02l8.435 329.09H-10.348C-5.138 81.329 30.64 48.862 74 48.862s79.138 32.467 84.348 74.418z" fill="#032C2C"/></g></svg>