<svg xmlns="http://www.w3.org/2000/svg" width="66" height="94"><path fill="#8DCF3F" d="M35.805.745l.92.015c18.812.275 29.598 16.038 29.269 38.521C65.518 71.86 47.3 93.623 22.063 93.255l-12.391-.183C4.342 81.063.896 65.409 1.145 48.43 1.582 18.605 13.781.424 35.805.745z"/><path d="M11.156 63.825a1.156 1.156 0 0 1-.557-.995c0-.651.496-1.149 1.148-1.149.211 0 .42.059.572.154.977.612 1.953.917 2.777.917.84 0 1.223-.305 1.223-.765v-.037c0-.633-.996-.843-2.123-1.188-1.436-.422-3.062-1.093-3.062-3.081v-.038c0-2.087 1.684-3.255 3.75-3.255 1.072 0 2.182.288 3.176.786.42.21.689.592.689 1.089 0 .651-.516 1.149-1.166 1.149a1.06 1.06 0 0 1-.537-.134c-.822-.401-1.607-.651-2.221-.651-.707 0-1.07.307-1.07.709v.037c0 .574.977.843 2.086 1.226 1.436.478 3.1 1.168 3.1 3.042v.038c0 2.278-1.703 3.312-3.922 3.312a7.145 7.145 0 0 1-3.863-1.166zm9.649-11.731c0-.841.711-1.356 1.629-1.356s1.625.517 1.625 1.356v.04c0 .842-.707 1.377-1.625 1.377s-1.629-.535-1.629-1.377v-.04zm.174 3.79a1.455 1.455 0 1 1 2.91 0v7.578a1.455 1.455 0 0 1-2.91 0v-7.578zm5.871 6.008v-4.859h-.094a1.242 1.242 0 0 1-1.244-1.244c0-.688.555-1.243 1.244-1.243h.094v-1.281a1.454 1.454 0 1 1 2.91 0v1.281h1.281a1.243 1.243 0 1 1 0 2.487H29.76v4.382c0 .671.287.995.938.995l.346-.02c.65 0 1.205.536 1.205 1.205 0 .518-.344.938-.746 1.091-.537.212-1.033.286-1.664.286-1.782.002-2.989-.707-2.989-3.08zm11.832 3.138c-3.08 0-5.357-2.163-5.357-5.301v-.038c0-2.928 2.086-5.339 5.072-5.339 3.424 0 4.936 2.812 4.936 4.937 0 .843-.594 1.398-1.357 1.398h-5.762c.289 1.318 1.207 2.008 2.508 2.008.803 0 1.475-.248 2.066-.688.211-.152.402-.229.709-.229.648 0 1.129.497 1.129 1.148 0 .383-.172.669-.385.86-.899.766-2.067 1.244-3.559 1.244zm1.875-6.162c-.172-1.3-.938-2.183-2.16-2.183-1.207 0-1.992.861-2.221 2.183h4.381zm-29 9.705a1.454 1.454 0 1 1 2.91 0v11.289a1.455 1.455 0 0 1-2.91 0V68.573zm9.777 12.859c-3.08 0-5.357-2.163-5.357-5.3v-.039c0-2.927 2.086-5.339 5.07-5.339 3.424 0 4.938 2.812 4.938 4.938 0 .842-.592 1.396-1.357 1.396h-5.76c.287 1.32 1.203 2.01 2.506 2.01.805 0 1.475-.249 2.066-.688.211-.152.4-.229.707-.229.652 0 1.129.497 1.129 1.149 0 .381-.172.668-.381.859-.901.763-2.067 1.243-3.561 1.243zm1.875-6.161c-.172-1.301-.938-2.182-2.162-2.182-1.205 0-1.988.861-2.221 2.182h4.383zm3.482 2.985v-.039c0-2.237 1.703-3.271 4.133-3.271a7.28 7.28 0 0 1 2.508.422v-.173c0-1.206-.746-1.875-2.199-1.875-.805 0-1.455.114-2.01.287a1.246 1.246 0 0 1-.422.076c-.67 0-1.207-.517-1.207-1.187 0-.518.326-.957.785-1.129.918-.345 1.914-.536 3.273-.536 1.588 0 2.734.422 3.463 1.147.766.766 1.109 1.896 1.109 3.271v4.668c0 .785-.633 1.398-1.416 1.398-.842 0-1.398-.595-1.398-1.206v-.019c-.705.784-1.684 1.3-3.098 1.3-1.933.004-3.521-1.107-3.521-3.134zm6.68-.67v-.519a4.52 4.52 0 0 0-1.855-.382c-1.244 0-2.012.497-2.012 1.416v.038c0 .784.652 1.245 1.588 1.245 1.359.001 2.279-.746 2.279-1.798zm4.973-4.153h-.114c-.67 0-1.205-.516-1.205-1.185a1.2 1.2 0 0 1 1.205-1.206h.113v-.651c0-1.13.289-1.951.824-2.486.533-.535 1.318-.806 2.354-.806.459 0 .861.021 1.186.076.498.077.998.519.998 1.168 0 .65-.537 1.206-1.189 1.206h-.246c-.672 0-1.055.344-1.055 1.109v.4h1.264a1.187 1.187 0 1 1 0 2.375h-1.225v6.43c0 .805-.65 1.455-1.455 1.455s-1.455-.65-1.455-1.455v-6.43z" fill="#fff"/></svg>