<svg width="3162" height="680" viewBox="0 0 3162 680" xmlns="http://www.w3.org/2000/svg"><title>Desktop HD Copy 2</title><g fill="none" fill-rule="evenodd"><path d="M66.874 226.367h.111c5.564-65.238 60.28-116.452 126.958-116.452s121.394 51.214 126.958 116.452h.07c3.94 35.178 33.782 62.524 70.01 62.524 36.23 0 66.073-27.346 70.012-62.524h.068c7.345-36.465 39.56-63.927 78.19-63.927 38.388 0 70.443 27.12 78.049 63.247 6.502 40.787 41.84 71.958 84.459 71.958 42.38 0 77.562-30.825 84.347-71.278h.091c.034-.406.069-.813.105-1.219.407-2.664.691-5.369.847-8.108C801.964 94.75 906.12 0 1032.408 0c129.48 0 235.696 99.602 246.21 226.367h.22c2.166 66.518 56.772 119.778 123.817 119.778 47.926 0 89.496-27.216 110.098-67.035.08.008.158.014.237.019.25-.674.507-1.345.771-2.011a123.224 123.224 0 0 0 3.608-7.998c15.739-30.98 47.91-52.209 85.04-52.209 35.359 0 66.221 19.253 82.677 47.847 13.972 34.676 47.934 59.15 87.612 59.15 38.007 0 70.77-22.457 85.742-54.825.082-.072.165-.144.248-.219.11-.354.221-.709.333-1.063a93.711 93.711 0 0 0 5.146-14.8c38.778-101.849 137.337-174.213 252.798-174.213 103.116 0 192.751 57.718 238.362 142.608 21.973 50.714 72.475 86.191 131.263 86.191 59.821 0 111.063-36.736 132.395-88.88 40.553-64.358 112.255-107.118 193.945-107.118 126.512 0 229.07 102.558 229.07 229.07 0 126.512-102.558 229.07-229.07 229.07-25.225 0-49.498-4.077-72.195-11.608v62.189H-2862V226.367H-72.91c4.388 34.695 34.007 61.524 69.892 61.524s65.504-26.83 69.892-61.524z" fill="#FFE9C5"/><path d="M339.347 399.38h.064c6.923-34.373 37.29-60.26 73.703-60.26 36.187 0 66.402 25.565 73.572 59.619 6.13 38.447 39.44 67.83 79.613 67.83 39.95 0 73.113-29.057 79.508-67.189h.086l.099-1.149c.384-2.511.652-5.061.798-7.643C660.756 275.314 758.937 186 877.978 186c122.052 0 222.174 93.888 232.085 213.38h.207c2.042 62.702 53.515 112.906 116.713 112.906 45.177 0 84.362-25.654 103.782-63.189l.224.018a89.2 89.2 0 0 1 .727-1.896 116.155 116.155 0 0 0 3.4-7.539c14.836-29.203 45.162-49.213 80.16-49.213 33.331 0 62.424 18.148 77.935 45.101 13.17 32.687 45.184 55.757 82.586 55.757 35.826 0 66.709-21.168 80.822-51.68.078-.067.156-.136.234-.206l.314-1.002a88.334 88.334 0 0 0 4.85-13.952c36.554-96.005 129.459-164.217 238.295-164.217 97.2 0 181.693 54.406 224.687 134.426 20.713 47.804 68.317 81.247 123.732 81.247 56.39 0 104.691-34.629 124.8-83.781 38.226-60.666 105.815-100.973 182.817-100.973 109.48 0 199.93 81.477 214.021 187.103a9.786 9.786 0 0 0 1.78.438c2.917 41.342 37.38 73.975 79.463 73.975 39.737 0 72.678-29.094 78.686-67.142l.877 1.253c18.877-99.994 106.693-175.627 212.173-175.627 119.254 0 215.928 96.674 215.928 215.928 0 112.97-86.755 205.678-197.276 215.134v34.524l-5955-6.052v-371.34H-32.056c5.244-61.496 56.821-109.772 119.674-109.772 62.852 0 114.43 48.276 119.674 109.771h.065c3.714 33.16 31.844 58.937 65.995 58.937s62.281-25.778 65.995-58.937z" fill="#FFCA25"/><path d="M3019.972 551.044c6.515-44.709 45.012-79.044 91.528-79.044 48.467 0 88.227 37.275 92.178 84.721H5749.72v745h-5760V897.787c-23.333 7.743-48.287 11.933-74.22 11.933-130.063 0-235.5-105.437-235.5-235.5s105.437-235.5 235.5-235.5c83.982 0 157.697 43.96 199.389 110.126 21.93 53.607 74.61 91.374 136.111 91.374 60.438 0 112.357-36.474 134.947-88.61C432.838 464.337 524.99 405 631 405c118.702 0 220.027 74.395 259.894 179.102a96.342 96.342 0 0 0 5.29 15.216c.115.364.23.729.343 1.093l.255.225C912.175 633.913 945.856 657 984.93 657c40.792 0 75.707-25.161 90.071-60.81C1091.92 566.792 1123.648 547 1160 547c38.171 0 71.246 21.824 87.426 53.674a126.681 126.681 0 0 0 3.71 8.222c.271.686.535 1.375.792 2.068.081-.005.163-.012.244-.02 21.18 40.938 63.917 68.917 113.189 68.917 68.926 0 125.065-54.754 127.292-123.14h.226C1503.688 426.398 1612.886 324 1746 324c129.832 0 236.912 97.41 252.143 223.132.16 2.816.453 5.597.871 8.336.037.417.073.835.107 1.253h.094C2006.191 598.31 2042.36 630 2085.93 630c43.815 0 80.145-32.046 86.83-73.978 7.82-37.14 40.774-65.022 80.24-65.022 39.714 0 72.833 28.232 80.384 65.721h.07c4.05 36.165 34.73 64.279 71.976 64.279 37.247 0 67.927-28.114 71.977-64.279h.072C2483.199 489.652 2539.45 437 2608 437c66.268 0 121.044 49.206 129.784 113.074.149 1.42.319 2.834.51 4.24.083.8.159 1.603.227 2.407h.12c10.425 68.11 69.265 120.279 140.29 120.279 71.024 0 129.863-52.17 140.289-120.279h.102a92.94 92.94 0 0 1 .187-1.988c.17-1.225.324-2.454.463-3.689z" fill="#032C2C"/></g></svg>