<?xml version="1.0" encoding="UTF-8"?>
<svg width="3162px" height="802px" viewBox="0 0 3162 802" version="1.1" xmlns="http://www.w3.org/2000/svg" xmlns:xlink="http://www.w3.org/1999/xlink">
    <!-- Generator: Sketch 40.3 (33839) - http://www.bohemiancoding.com/sketch -->
    <title>Desktop HD Copy 2</title>
    <desc>Created with Sketch.</desc>
    <defs></defs>
    <g id="Page-1" stroke="none" stroke-width="1" fill="none" fill-rule="evenodd">
        <g id="Desktop-HD-Copy-2">
            <g id="Group-11" transform="translate(-2862.000000, -1354.000000)">
                <g id="Group" transform="translate(4335.500000, 1614.500000) scale(-1, -1) translate(-4335.500000, -1614.500000) translate(0.000000, 1073.000000)">
                    <path d="M2974.58158,222.125061 C2967.06243,158.922832 2913.28294,109.914768 2848.057,109.914768 C2781.37886,109.914768 2726.66253,161.129383 2721.09938,226.367239 L2721.02958,226.367239 C2717.08974,261.544642 2687.24744,288.891028 2651.01805,288.891028 C2614.78866,288.891028 2584.94636,261.544642 2581.00652,226.367239 L2580.93903,226.367239 C2573.59446,189.901687 2541.37897,162.44041 2502.74954,162.44041 C2464.36071,162.44041 2432.30615,189.560693 2424.70017,225.686965 C2418.19753,266.474237 2382.85963,297.645301 2340.24134,297.645301 C2297.8603,297.645301 2262.67882,266.820321 2255.89378,226.367239 L2255.80251,226.367239 C2255.76878,225.960613 2255.73407,225.554266 2255.69838,225.148201 C2255.29104,222.483864 2255.00665,219.77906 2254.85116,217.039766 C2240.03566,94.7502869 2135.87896,0 2009.59213,0 C1880.11233,0 1773.89585,99.6021056 1763.38176,226.367239 L1763.16184,226.367239 C1760.99568,292.885455 1706.39016,346.144566 1639.34531,346.144566 C1591.41903,346.144566 1549.84918,318.929424 1529.24695,279.110321 C1529.16793,279.117587 1529.08888,279.123812 1529.00978,279.128967 C1528.76011,278.454866 1528.50302,277.784359 1528.23864,277.117544 C1526.94515,274.502689 1525.74125,271.835619 1524.63095,269.120346 C1508.89215,238.139222 1476.72091,216.911445 1439.59165,216.911445 C1404.23228,216.911445 1373.3695,236.163689 1356.91384,264.757666 C1342.94151,299.433633 1308.97985,323.908122 1269.30187,323.908122 C1231.29475,323.908122 1198.53265,301.451494 1183.56033,269.082987 C1183.4777,269.011383 1183.39486,268.938541 1183.3118,268.864483 C1183.20156,268.509662 1183.0906,268.155161 1182.97894,267.800975 C1180.87184,263.060444 1179.14376,258.114147 1177.8332,253.000564 C1139.05467,151.152217 1040.49552,78.7884622 925.034908,78.7884622 C821.918965,78.7884622 732.283589,136.505631 686.672514,221.396234 C664.699715,272.109515 614.198026,307.587444 555.410023,307.587444 C495.58857,307.587444 444.347327,270.851199 423.015292,218.707708 C382.461864,154.349119 310.759594,111.588986 229.070159,111.588986 C102.558203,111.588986 0,214.147189 0,340.659144 C0,437.491013 60.0819325,520.289994 144.999997,553.810288 L145,724.273438 L364.09375,692.171875 L865.78125,620.30955 L5904,620.30955 L5904,226.367239 L3304.87119,226.367239 C3301.41452,314.561864 3228.82444,385 3139.78265,385 C3049.31772,385 2975.83459,312.292252 2974.58158,222.125068 Z" id="Combined-Shape" fill="#FFE9C5" transform="translate(2952.000000, 362.136719) scale(-1, 1) translate(-2952.000000, -362.136719) "></path>
                    <path d="M3384.12645,466.461189 C3393.57306,418.319482 3435.9998,382 3486.90941,382 C3539.53899,382 3583.10283,420.815041 3590.53594,471.38012 L5972.46321,471.38012 L5972.46321,842.721212 L548.270659,842.798253 C508.000454,863.413025 462.369085,875.042849 414.021425,875.042849 C251.085591,875.042849 119,742.957258 119,580.021425 C119,417.085591 251.085591,285 414.021425,285 C548.479368,285 661.928655,374.948756 697.478521,497.955505 C697.529638,497.954485 697.580802,497.952954 697.632012,497.950919 C717.355923,574.182606 786.602905,630.48493 869,630.48493 C951.594693,630.48493 1020.97613,573.912242 1040.50903,497.402136 C1076.81908,400.91483 1169.96831,332.268218 1279.15081,332.268218 C1387.98723,332.268218 1480.89185,400.480327 1517.44559,496.485447 C1518.68096,501.305647 1520.30989,505.968166 1522.29611,510.436727 C1522.40136,510.77059 1522.50595,511.104752 1522.60986,511.43921 C1522.68816,511.509025 1522.76625,511.577688 1522.84413,511.645184 C1536.95747,542.156649 1567.83994,563.324897 1603.66653,563.324897 C1641.0681,563.324897 1673.08132,540.254556 1686.25202,507.568016 C1701.76359,480.614529 1730.85571,462.466823 1764.18646,462.466823 C1799.18553,462.466823 1829.51105,482.476722 1844.34689,511.680409 C1845.39348,514.239893 1846.52831,516.753948 1847.74759,519.218783 C1847.99681,519.847342 1848.23915,520.479381 1848.4745,521.114807 C1848.54905,521.109948 1848.62357,521.104081 1848.69805,521.097213 C1868.1183,558.631836 1907.3032,584.285594 1952.47987,584.285594 C2015.67823,584.285594 2067.15092,534.082059 2069.1928,471.38014 L2069.40011,471.38012 C2079.31098,351.887743 2179.43363,258 2301.48493,258 C2420.52643,258 2518.70747,347.314283 2532.67298,462.587787 C2532.81954,465.169918 2533.08762,467.719542 2533.47159,470.231026 C2533.50523,470.613789 2533.53795,470.996823 2533.56974,471.38012 L2533.65578,471.38012 C2540.05155,509.512332 2573.2146,538.568825 2613.16416,538.568825 C2653.33736,538.568825 2686.64785,509.186103 2692.77743,470.738875 C2699.94704,436.685235 2730.16256,411.120894 2766.34896,411.120894 C2802.76214,411.120894 2833.12937,437.006666 2840.05257,471.38012 L2840.11618,471.38012 C2843.82999,504.539329 2871.96018,530.3168 2906.11102,530.3168 C2940.26186,530.3168 2968.39205,504.539329 2972.10586,471.38012 L2972.17165,471.38012 C2977.41563,409.885084 3028.99278,361.608749 3091.84547,361.608749 C3154.69816,361.608749 3206.27531,409.885084 3211.51929,471.38012 L3212.12688,471.38012 C3216.45771,514.962747 3253.23025,549 3297.95262,549 C3344.3443,549 3382.18161,512.374368 3384.12645,466.461187 Z" id="Combined-Shape" fill="#FFCA25" transform="translate(3045.731604, 566.521425) scale(-1, 1) translate(-3045.731604, -566.521425) "></path>
                    <path d="M5650.65225,678.721212 L5650.52123,678.721212 C5644.80194,611.652173 5588.54975,559 5520,559 C5451.45025,559 5395.19806,611.652173 5389.47877,678.721212 L5389.40701,678.721212 C5385.35658,714.88602 5354.67663,743 5317.4303,743 C5280.18398,743 5249.50403,714.88602 5245.4536,678.721212 L5245.38421,678.721212 C5237.83349,641.232096 5204.71372,613 5165,613 C5125.53362,613 5092.57931,640.881531 5084.75984,678.021843 C5078.07467,719.953985 5041.74486,752 4997.9303,752 C4954.35966,752 4918.19066,720.309784 4911.21517,678.721212 L4911.12133,678.721212 C4911.08666,678.303172 4911.05097,677.885419 4911.01428,677.467956 C4910.59551,674.728833 4910.30313,671.948107 4910.14328,669.131923 C4894.91192,543.409862 4787.83161,446 4658,446 C4524.88579,446 4415.68788,548.397868 4404.87867,678.721212 L4404.65258,678.721212 C4402.42562,747.106547 4346.28736,801.860606 4277.36061,801.860606 C4228.08906,801.860606 4185.35238,773.881553 4164.17186,732.944755 C4164.09062,732.952226 4164.00935,732.958625 4163.92803,732.963925 C4163.67135,732.270903 4163.40705,731.581575 4163.13524,730.896042 C4161.80544,728.20779 4160.56775,725.465857 4159.42629,722.674368 C4143.24571,690.823625 4110.17144,669 4072,669 C4035.64811,669 4003.91904,688.792641 3987.00147,718.189232 C3972.63696,753.838529 3937.72202,779 3896.9303,779 C3857.85634,779 3824.17464,755.91303 3808.78205,722.635961 C3808.6971,722.562347 3808.61193,722.48746 3808.52655,722.411323 C3808.41321,722.046543 3808.29914,721.682092 3808.18435,721.317963 C3806.0181,716.44437 3804.24152,711.359233 3802.89417,706.102116 C3763.02715,601.394956 3661.70151,527 3543,527 C3436.98966,527 3344.83829,586.337249 3297.94694,673.610673 C3275.35738,725.747442 3223.43814,762.221212 3163,762.221212 C3101.4994,762.221212 3048.81985,724.453806 3026.88904,670.846683 C2985.19731,604.681593 2911.4824,560.721212 2827.5,560.721212 C2697.43694,560.721212 2592,666.158153 2592,796.221212 C2592,926.28427 2697.43694,1031.72121 2827.5,1031.72121 C2864.63842,1031.72121 2899.76897,1023.12451 2931.01028,1007.8125 L3352.86429,1007.8125 C3402.58366,1054.44284 3469.45689,1083 3543,1083 C3616.54311,1083 3683.41634,1054.44284 3733.13571,1007.8125 L8670.15625,1007.8125 L8661.72121,678.721212 L5819.34775,678.721212 C5814.13839,720.671676 5778.36082,753.139394 5735,753.139394 C5691.63918,753.139394 5655.86161,720.671676 5650.65225,678.721212 Z" id="Combined-Shape" fill="#032C2C"></path>
                </g>
            </g>
        </g>
    </g>
</svg>